<svg xmlns="http://www.w3.org/2000/svg" width="615" height="486" fill="none" viewBox="0 0 615 486">
    <mask id="efmzsnjqha" width="615" height="486" x="0" y="0" maskUnits="userSpaceOnUse">
        <rect width="615" height="486" fill="#79B8D9" rx="11"/>
    </mask>
    <g mask="url(#efmzsnjqha)">
        <path fill="url(#paint0_linear)" d="M0 0H615V486H0z"/>
        <path fill="#fff" d="M260.673 383.597l-17.668-12.949c-22.464-16.464-53.002-16.488-75.491-.06l-52.482 38.336c-22.487 16.426-53.014 16.426-75.502 0L-50.719 343v125.5h791.646l-57.47-77.139c-19.562-26.256-57.171-30.673-82.284-9.663l-23.456 19.623c-14.895 12.462-35.922 14.479-52.915 5.076l-66.241-36.656c-19.183-10.615-42.988-7.881-59.265 6.806-38.694 34.915-96.587 37.859-138.623 7.05z" opacity=".1"/>
        <path fill="#70B6DB" d="M135 545.5l127.821-169.362c25.933-34.362 77.713-33.835 102.941 1.047L487.5 545.5l112.415-161.512c25.753-37.001 80.668-36.49 105.729.983L813 545.5H135z"/>
        <path fill="#68B5DE" d="M-95.5 549.5L66.752 359.808c23.033-26.928 63.562-30.015 90.408-6.887l102.118 87.974c35.821 30.861 88.779 31.044 124.813.432l106.85-90.773c26.056-22.136 64.911-19.883 88.233 5.117L760 549.5H-391L-249 396l153.5 153.5z"/>
        <path stroke="#fff" stroke-opacity=".16" d="M-31.5 214.5l89.952-27.443c75-22.881 155.832-17.018 226.745 16.446v0c14.894 7.029 32.003 7.715 47.412 1.902L475.5 151.5l68.198 37.038c29.612 16.083 65.529 15.275 94.388-2.123L696 151.5"/>
        <path stroke="#fff" stroke-opacity=".16" d="M-31.5 221l89.952-27.443c75-22.881 155.832-17.018 226.745 16.446v0c14.894 7.029 32.003 7.715 47.412 1.902L475.5 158l68.198 37.038c29.612 16.083 65.529 15.275 94.388-2.123L696 158"/>
        <path stroke="#fff" stroke-opacity=".16" d="M-31.5 226l89.952-27.443c75-22.881 155.832-17.018 226.745 16.446v0c14.894 7.029 32.003 7.715 47.412 1.902L475.5 163l68.198 37.038c29.612 16.083 65.529 15.275 94.388-2.123L696 163"/>
        <path stroke="#fff" stroke-opacity=".16" d="M-31.5 232l89.952-27.443c75-22.881 155.832-17.018 226.745 16.446v0c14.894 7.029 32.003 7.715 47.412 1.902L475.5 169l68.198 37.038c29.612 16.083 65.529 15.275 94.388-2.123L696 169"/>
        <path stroke="#fff" stroke-opacity=".16" d="M-31.5 238l89.952-27.443c75-22.881 155.832-17.018 226.745 16.446v0c14.894 7.029 32.003 7.715 47.412 1.902L475.5 175l68.198 37.038c29.612 16.083 65.529 15.275 94.388-2.123L696 175"/>
    </g>
    <defs>
        <linearGradient id="paint0_linear" x1="307.5" x2="307.5" y1="0" y2="486" gradientUnits="userSpaceOnUse">
            <stop stop-color="#53B3D9"/>
            <stop offset="1" stop-color="#9BBEF1"/>
        </linearGradient>
    </defs>
</svg>
